<mxfile host="app.diagrams.net" modified="2023-12-20T09:06:06.519Z" agent="Mozilla/5.0 (Windows NT 10.0; Win64; x64) AppleWebKit/537.36 (KHTML, like Gecko) Chrome/120.0.0.0 Safari/537.36 Edg/120.0.0.0" version="22.1.11" etag="Bmhe_4zSgXxvJ0wTFIbo" type="github">
  <diagram name="Page-1" id="2AoE8no1jIqksjWk7j5P">
    <mxGraphModel>
      <root>
        <mxCell id="0" />
        <mxCell id="1" parent="0" />
      </root>
    </mxGraphModel>
  </diagram>
</mxfile>
